<?xml version="1.0" encoding="UTF-8" standalone="no" ?>
<!DOCTYPE svg PUBLIC "-//W3C//DTD SVG 1.1//EN" "http://www.w3.org/Graphics/SVG/1.1/DTD/svg11.dtd">
<svg xmlns="http://www.w3.org/2000/svg" xmlns:xlink="http://www.w3.org/1999/xlink" version="1.1" width="1080" height="1080" viewBox="0 0 1080 1080" xml:space="preserve">
<desc>Created with Fabric.js 5.2.4</desc>
<defs>
</defs>
<g transform="matrix(1 0 0 1 540 540)" id="b1199a6a-1997-4d91-8afa-4ecb301ed0ac"  >
</g>
<g transform="matrix(1 0 0 1 540 540)" id="48ca69c5-ab1e-4ec2-a2e0-b3f2916494a1"  >
<rect style="stroke: none; stroke-width: 1; stroke-dasharray: none; stroke-linecap: butt; stroke-dashoffset: 0; stroke-linejoin: miter; stroke-miterlimit: 4; fill: rgb(255,255,255); fill-rule: nonzero; opacity: 1; visibility: hidden;" vector-effect="non-scaling-stroke"  x="-540" y="-540" rx="0" ry="0" width="1080" height="1080" />
</g>
<g transform="matrix(1 0 0 0.71 540 540)"  >
<g style="" vector-effect="non-scaling-stroke"   >
		<g transform="matrix(1 0 0 1 -39.62 0)"  >
<path style="stroke: none; stroke-width: 1; stroke-dasharray: none; stroke-linecap: butt; stroke-dashoffset: 0; stroke-linejoin: miter; stroke-miterlimit: 4; fill: rgb(91,150,77); fill-rule: nonzero; opacity: 1;" vector-effect="non-scaling-stroke"  transform=" translate(-10.04, -10.21)" d="M 14.936 3.0295 L 8.20144 3.0295 L 8.20144 5.54754 L 8.20144 7.08355 L 8.20144 8.37783 L 8.20144 9.50591 L 8.20144 12.0491 L 11.8762 12.0491 L 11.8762 8.38286 L 9.0987 8.38286 L 9.0987 5.55258 L 13.2221 5.55258 C 13.6355 5.55258 14.0085 5.71877 14.2756 5.99072 C 14.5478 6.25763 14.7142 6.63534 14.7142 7.04326 L 14.7142 13.4643 L 14.7142 14.8794 L 13.2977 14.8794 L 6.85553 14.8794 C 6.44219 14.8794 6.06916 14.7132 5.802 14.4413 C 5.52979 14.1693 5.36345 13.7967 5.36345 13.3887 L 5.36345 7.08859 L 5.36345 6.96772 L 5.36345 5.55258 L 5.36345 1.81077 L 5.36345 0.199219 L 14.936 0.199219 C 16.3525 0.199219 17.6328 0.773333 18.5654 1.70501 C 19.4929 2.63165 20.0726 3.91585 20.0726 5.32596 L 20.0726 15.9571 L 20.0726 17.9615 L 20.0726 18.8479 C 20.0726 19.6083 19.4526 20.2277 18.6914 20.2277 L 18.4545 20.2277 L 17.7286 20.2277 L 5.13661 20.2277 C 3.72013 20.2277 2.43976 19.6536 1.50721 18.722 C 0.574655 17.7953 0 16.5111 0 15.101 L 0 5.54754 L 1.48201 5.54754 L 2.83295 5.54754 L 4.46114 5.54754 L 4.46114 8.37783 L 2.83295 8.37783 L 2.83295 15.101 C 2.83295 15.7305 3.09003 16.3046 3.50842 16.7226 C 3.92681 17.1406 4.50146 17.3975 5.13157 17.3975 L 17.2296 17.3975 L 17.2296 5.32596 C 17.2296 4.69645 16.9725 4.12233 16.5541 3.70434 C 16.1407 3.29138 15.5711 3.0295 14.936 3.0295 Z" stroke-linecap="round" />
</g>
		<g transform="matrix(1 0 0 1 37.5 1.6)"  >
<path style="stroke: none; stroke-width: 1; stroke-dasharray: none; stroke-linecap: butt; stroke-dashoffset: 0; stroke-linejoin: miter; stroke-miterlimit: 4; fill: rgb(91,150,77); fill-rule: nonzero; opacity: 1;" vector-effect="non-scaling-stroke"  transform=" translate(-87.16, -11.81)" d="M 90.4094 7.04339 C 89.1089 6.14193 87.4908 5.81962 85.8626 6.16711 C 83.6345 6.64553 81.8602 8.47364 81.4468 10.7248 C 81.1292 12.4421 81.5829 14.1896 82.6869 15.5141 C 83.7908 16.8386 85.4139 17.599 87.1329 17.599 C 88.2771 17.599 89.3861 17.2616 90.3187 16.6422 C 90.4649 17.0652 90.8631 17.3724 91.3369 17.3724 L 92.9702 17.3724 L 92.9702 6.25272 L 91.6847 6.25272 C 91.1252 6.24768 90.6413 6.57503 90.4094 7.04339 Z M 84.4713 13.3586 C 84.1638 12.8701 84.0227 12.3464 84.0428 11.7572 C 84.068 10.9262 84.4461 10.1154 85.0762 9.54129 C 85.671 9.00242 86.3667 8.74055 87.1984 8.74055 C 87.7731 8.74055 88.2822 8.87652 88.7611 9.15351 C 89.7743 9.74777 90.2683 10.6392 90.2683 11.868 C 90.2683 12.6788 89.9709 13.3687 89.3609 13.9831 C 88.6905 14.6529 87.9142 14.95 86.9766 14.8795 C 86.5834 14.8493 86.1902 14.7436 85.8323 14.5673 C 85.2476 14.2853 84.799 13.8874 84.4713 13.3586 Z" stroke-linecap="round" />
</g>
		<g transform="matrix(1 0 0 1 -14.81 0.01)"  >
<path style="stroke: none; stroke-width: 1; stroke-dasharray: none; stroke-linecap: butt; stroke-dashoffset: 0; stroke-linejoin: miter; stroke-miterlimit: 4; fill: rgb(91,150,77); fill-rule: nonzero; opacity: 1;" vector-effect="non-scaling-stroke"  transform=" translate(-34.84, -10.23)" d="M 37.6424 6.77648 C 36.73 6.28294 35.742 6.03617 34.6986 6.03617 C 33.8164 6.03617 32.9948 6.22754 32.2437 6.61029 C 32.0723 6.6959 31.911 6.79158 31.7547 6.89231 L 31.7547 3.93109 C 31.7547 3.33683 31.2708 2.8584 30.681 2.8584 L 29.0125 2.8584 L 29.0125 17.3724 L 30.6306 17.3724 C 31.0944 17.3724 31.4876 17.0803 31.6388 16.6674 C 31.8606 16.8134 32.0975 16.9443 32.3546 17.0602 C 33.141 17.4228 33.9777 17.6041 34.8347 17.6041 C 36.5637 17.6041 38.081 16.8839 39.3412 15.4688 C 40.2284 14.4767 40.677 13.2327 40.677 11.7672 C 40.677 10.7147 40.3998 9.73266 39.8503 8.84631 C 39.3009 7.96499 38.5599 7.27001 37.6424 6.77648 Z M 37.5567 13.263 C 37.2694 13.7867 36.8863 14.1795 36.3873 14.4767 C 35.9134 14.7536 35.4093 14.8896 34.8548 14.8896 C 34.2751 14.8896 33.7459 14.7587 33.2569 14.5018 C 32.1983 13.9177 31.7043 13.0867 31.7043 11.8831 C 31.7043 10.9715 31.9866 10.2363 32.5713 9.6269 C 33.146 9.02761 33.8618 8.73551 34.7641 8.73551 C 35.6664 8.73551 36.4024 9.02257 37.0224 9.60676 C 37.6323 10.1809 37.9247 10.896 37.9297 11.7874 C 37.9297 12.3111 37.7987 12.8198 37.5567 13.263 Z" stroke-linecap="round" />
</g>
		<g transform="matrix(1 0 0 1 -0.34 1.6)"  >
<path style="stroke: none; stroke-width: 1; stroke-dasharray: none; stroke-linecap: butt; stroke-dashoffset: 0; stroke-linejoin: miter; stroke-miterlimit: 4; fill: rgb(91,150,77); fill-rule: nonzero; opacity: 1;" vector-effect="non-scaling-stroke"  transform=" translate(-49.31, -11.82)" d="M 49.3362 6.03613 C 48.2877 6.03613 47.3047 6.30305 46.4125 6.8268 C 45.5203 7.35055 44.8095 8.06568 44.3004 8.95706 C 43.7913 9.84845 43.5342 10.8305 43.5342 11.873 C 43.5342 12.9003 43.8064 13.8673 44.3357 14.7486 C 44.9406 15.7507 45.7874 16.5213 46.851 17.04 C 47.4559 17.3371 48.1012 17.5184 48.7716 17.5789 C 48.9632 17.594 49.1497 17.604 49.3362 17.604 C 50.3746 17.604 51.3525 17.3371 52.2347 16.8033 C 53.2327 16.204 53.9989 15.3529 54.5232 14.2802 C 54.8357 13.6356 55.0222 12.9456 55.0726 12.2255 C 55.1987 10.488 54.6341 8.98225 53.384 7.73833 C 52.2447 6.60521 50.8837 6.03613 49.3362 6.03613 Z M 52.3405 11.7471 C 52.3405 12.3161 52.2095 12.8349 51.9473 13.3284 C 51.3727 14.396 50.5409 14.8896 49.3362 14.8896 C 48.57 14.8896 47.8441 14.6176 47.2946 14.1191 C 46.5889 13.4795 46.2562 12.714 46.2764 11.7722 C 46.2865 11.3593 46.3772 10.9413 46.5436 10.5736 C 46.8208 9.94414 47.2291 9.48082 47.7937 9.15347 C 48.2726 8.87649 48.7766 8.74051 49.3362 8.74051 C 50.1326 8.74051 50.8232 9.02757 51.4432 9.61176 C 52.0481 10.1859 52.3405 10.8859 52.3405 11.7471 Z" stroke-linecap="round" />
</g>
		<g transform="matrix(1 0 0 1 13.68 1.49)"  >
<path style="stroke: none; stroke-width: 1; stroke-dasharray: none; stroke-linecap: butt; stroke-dashoffset: 0; stroke-linejoin: miter; stroke-miterlimit: 4; fill: rgb(91,150,77); fill-rule: nonzero; opacity: 1;" vector-effect="non-scaling-stroke"  transform=" translate(-63.33, -11.7)" d="M 63.2985 6.03613 C 62.3811 6.03613 61.5695 6.2829 60.8638 6.7714 C 60.6773 6.45916 60.3345 6.24765 59.9413 6.24765 L 58.3232 6.24765 L 58.3232 17.3673 L 61.0705 17.3673 L 61.0705 11.5507 C 61.0705 11.0672 61.0957 10.6341 61.1461 10.2765 C 61.2217 9.85349 61.4586 9.506 61.8921 9.1988 C 62.3156 8.88656 62.7541 8.74051 63.2431 8.74051 C 64.095 8.74051 64.7049 9.03764 65.1637 9.67219 C 65.451 10.0751 65.5972 10.7046 65.5972 11.5456 L 65.5972 16.2896 C 65.5972 16.8839 66.0811 17.3623 66.6709 17.3623 L 68.3394 17.3623 L 68.3394 11.5456 C 68.3394 9.9945 67.9865 8.77073 67.2909 7.90452 C 66.2827 6.66564 64.9368 6.03613 63.2985 6.03613 Z" stroke-linecap="round" />
</g>
		<g transform="matrix(1 0 0 1 48.28 1.59)"  >
<path style="stroke: none; stroke-width: 1; stroke-dasharray: none; stroke-linecap: butt; stroke-dashoffset: 0; stroke-linejoin: miter; stroke-miterlimit: 4; fill: rgb(91,150,77); fill-rule: nonzero; opacity: 1;" vector-effect="non-scaling-stroke"  transform=" translate(-97.94, -11.81)" d="M 96.5674 7.32025 L 96.5674 17.3672 L 98.2359 17.3672 C 98.8307 17.3672 99.3096 16.8838 99.3096 16.2946 L 99.3096 6.24756 L 97.6411 6.24756 C 97.0513 6.24756 96.5674 6.72599 96.5674 7.32025 Z" stroke-linecap="round" />
</g>
		<g transform="matrix(1 0 0 1 48.28 -8.64)"  >
<path style="stroke: none; stroke-width: 1; stroke-dasharray: none; stroke-linecap: butt; stroke-dashoffset: 0; stroke-linejoin: miter; stroke-miterlimit: 4; fill: rgb(91,150,77); fill-rule: nonzero; opacity: 1;" vector-effect="non-scaling-stroke"  transform=" translate(-97.94, -1.57)" d="M 98.2661 2.94389 L 96.9152 2.94389 C 96.7236 2.94389 96.5674 2.78777 96.5674 2.5964 L 96.5674 1.24673 C 96.5674 0.667575 97.0362 0.199219 97.6159 0.199219 L 99.3146 0.199219 L 99.3146 1.89638 C 99.3096 2.47553 98.8458 2.94389 98.2661 2.94389 Z" stroke-linecap="round" />
</g>
		<g transform="matrix(1 0 0 1 25.47 1.61)"  >
<path style="stroke: none; stroke-width: 1; stroke-dasharray: none; stroke-linecap: butt; stroke-dashoffset: 0; stroke-linejoin: miter; stroke-miterlimit: 4; fill: rgb(91,150,77); fill-rule: nonzero; opacity: 1;" vector-effect="non-scaling-stroke"  transform=" translate(-75.12, -11.82)" d="M 77.9582 11.6107 C 77.2676 11.1876 76.4863 10.8452 75.6142 10.5884 C 75.5386 10.5632 75.4479 10.538 75.3521 10.5078 C 75.2563 10.4826 75.1555 10.4574 75.0497 10.4322 C 74.8279 10.3517 74.6212 10.2459 74.4246 10.1099 C 74.228 9.97395 74.1373 9.78258 74.1524 9.53581 L 74.1524 9.51567 C 74.1524 9.21854 74.2482 8.99191 74.4447 8.84083 C 74.6413 8.68975 74.8783 8.61421 75.1656 8.61421 C 75.4126 8.61421 75.6293 8.67968 75.8209 8.81062 C 75.8713 8.84587 75.9116 8.88112 75.952 8.92645 C 76.1032 9.10271 76.3451 9.17321 76.5569 9.07753 L 78.4724 8.20629 C 78.2959 7.77822 78.0187 7.39044 77.6306 7.04798 C 76.9148 6.40336 76.1082 6.08105 75.211 6.08105 C 74.2582 6.08105 73.4164 6.38826 72.6754 6.99762 C 71.9344 7.60699 71.5614 8.41276 71.5614 9.41495 C 71.5614 9.86819 71.6471 10.2862 71.8235 10.6639 C 71.9999 11.0416 72.2621 11.379 72.6149 11.6762 C 72.7309 11.7819 72.8468 11.8675 72.9577 11.938 C 73.0686 12.0085 73.1745 12.069 73.2803 12.1244 C 73.4114 12.1898 73.5424 12.2503 73.6685 12.3006 C 73.7995 12.351 73.9356 12.4064 74.0768 12.4567 L 74.3087 12.5373 C 74.3893 12.5625 74.47 12.5877 74.5607 12.6129 C 74.6665 12.6532 74.7724 12.6884 74.8833 12.7186 C 74.9942 12.7488 75.1101 12.7942 75.2261 12.8445 C 75.5235 12.9503 75.7957 13.0863 76.0377 13.2625 C 76.2796 13.4388 76.4006 13.6906 76.4006 14.0129 C 76.4006 14.3503 76.2746 14.6072 76.0276 14.7834 C 75.7806 14.9597 75.4983 15.0453 75.1858 15.0453 C 74.8077 15.0453 74.5052 14.9295 74.2683 14.6928 C 74.2431 14.6676 74.2129 14.6374 74.1927 14.6072 C 73.9255 14.3 73.3761 14.1187 72.9779 14.2043 L 71.2539 14.582 C 71.4102 15.3475 71.7681 15.9971 72.3276 16.5209 C 73.0636 17.2108 73.986 17.5533 75.09 17.5533 C 75.1958 17.5533 75.2967 17.5482 75.4025 17.5331 L 75.715 17.4928 C 76.1183 17.4123 76.5115 17.2864 76.8946 17.1051 C 77.2777 16.9238 77.6154 16.7022 77.8977 16.4403 C 78.2607 16.0878 78.5329 15.695 78.7194 15.2618 C 78.9008 14.8287 78.9916 14.3554 78.9916 13.8467 C 78.9966 12.7791 78.6488 12.0287 77.9582 11.6107 Z" stroke-linecap="round" />
</g>
</g>
</g>
</svg>